<svg viewBox="0 0 240 240" xmlns="http://www.w3.org/2000/svg">
<circle cx="120" cy="120" r="118" fill="#15121f"/>
<circle cx="120" cy="120" r="106" fill="none" stroke="#d4a857" stroke-width="1.4"/>
<circle cx="120" cy="120" r="100" fill="none" stroke="#d4a857" stroke-width="0.6" opacity="0.5"/>
<g stroke="#a89bc2" stroke-width="0.75" opacity="0.55">
<line x1="120.00" y1="20.00" x2="120.00" y2="14.00"/>
<line x1="139.51" y1="21.92" x2="140.68" y2="16.04"/>
<line x1="158.27" y1="27.61" x2="160.56" y2="22.07"/>
<line x1="175.56" y1="36.85" x2="178.89" y2="31.86"/>
<line x1="190.71" y1="49.29" x2="194.95" y2="45.05"/>
<line x1="203.15" y1="64.44" x2="208.14" y2="61.11"/>
<line x1="212.39" y1="81.73" x2="217.93" y2="79.44"/>
<line x1="218.08" y1="100.49" x2="223.96" y2="99.32"/>
<line x1="220.00" y1="120.00" x2="226.00" y2="120.00"/>
<line x1="218.08" y1="139.51" x2="223.96" y2="140.68"/>
<line x1="212.39" y1="158.27" x2="217.93" y2="160.56"/>
<line x1="203.15" y1="175.56" x2="208.14" y2="178.89"/>
<line x1="190.71" y1="190.71" x2="194.95" y2="194.95"/>
<line x1="175.56" y1="203.15" x2="178.89" y2="208.14"/>
<line x1="158.27" y1="212.39" x2="160.56" y2="217.93"/>
<line x1="139.51" y1="218.08" x2="140.68" y2="223.96"/>
<line x1="120.00" y1="220.00" x2="120.00" y2="226.00"/>
<line x1="100.49" y1="218.08" x2="99.32" y2="223.96"/>
<line x1="81.73" y1="212.39" x2="79.44" y2="217.93"/>
<line x1="64.44" y1="203.15" x2="61.11" y2="208.14"/>
<line x1="49.29" y1="190.71" x2="45.05" y2="194.95"/>
<line x1="36.85" y1="175.56" x2="31.86" y2="178.89"/>
<line x1="27.61" y1="158.27" x2="22.07" y2="160.56"/>
<line x1="21.92" y1="139.51" x2="16.04" y2="140.68"/>
<line x1="20.00" y1="120.00" x2="14.00" y2="120.00"/>
<line x1="21.92" y1="100.49" x2="16.04" y2="99.32"/>
<line x1="27.61" y1="81.73" x2="22.07" y2="79.44"/>
<line x1="36.85" y1="64.44" x2="31.86" y2="61.11"/>
<line x1="49.29" y1="49.29" x2="45.05" y2="45.05"/>
<line x1="64.44" y1="36.85" x2="61.11" y2="31.86"/>
<line x1="81.73" y1="27.61" x2="79.44" y2="22.07"/>
<line x1="100.49" y1="21.92" x2="99.32" y2="16.04"/>
</g>
<circle cx="120" cy="120" r="86" fill="none" stroke="#d4a857" stroke-width="0.75" opacity="0.45"/>
<g fill="#d4a857">
<circle cx="120.00" cy="34.00" r="4.5"/>
<circle cx="180.81" cy="59.19" r="4.5"/>
<circle cx="206.00" cy="120.00" r="4.5"/>
<circle cx="180.81" cy="180.81" r="4.5"/>
<circle cx="120.00" cy="206.00" r="4.5"/>
<circle cx="59.19" cy="180.81" r="4.5"/>
<circle cx="34.00" cy="120.00" r="4.5"/>
<circle cx="59.19" cy="59.19" r="4.5"/>
</g>
<circle cx="120" cy="120" r="60" fill="none" stroke="#a89bc2" stroke-width="1" opacity="0.6"/>
<g stroke="#d4a857" stroke-width="1" opacity="0.65">
<line x1="120" y1="120" x2="120.00" y2="60.00"/>
<line x1="120" y1="120" x2="151.82" y2="88.18"/>
<line x1="120" y1="120" x2="180.00" y2="120.00"/>
<line x1="120" y1="120" x2="151.82" y2="151.82"/>
<line x1="120" y1="120" x2="120.00" y2="180.00"/>
<line x1="120" y1="120" x2="88.18" y2="151.82"/>
<line x1="120" y1="120" x2="60.00" y2="120.00"/>
<line x1="120" y1="120" x2="88.18" y2="88.18"/>
</g>
<circle cx="120.00" cy="60.00" r="7" fill="none" stroke="#6E7191" stroke-width="1.6"/>
<circle cx="180.00" cy="120.00" r="7" fill="none" stroke="#8FB6D9" stroke-width="1.2"/>
<path d="M 180.00 113.00 A 7 7 0 0 1 180.00 127.00 Z" fill="#8FB6D9"/>
<circle cx="120.00" cy="180.00" r="7" fill="#F4EED9"/>
<circle cx="60.00" cy="120.00" r="7" fill="none" stroke="#5C4A73" stroke-width="1.2"/>
<path d="M 60.00 113.00 A 7 7 0 0 0 60.00 127.00 Z" fill="#5C4A73"/>
<circle cx="120" cy="120" r="9" fill="#241f38" stroke="#d4a857" stroke-width="1.6"/>
</svg>